<svg xmlns="http://www.w3.org/2000/svg" xmlns:xlink="http://www.w3.org/1999/xlink" width="840" height="581.04"><rect width="840" height="581.04" rx="5" ry="5" class="a"/><svg y="0%" x="0%"><circle cx="20" cy="20" r="6" fill="#ff5f58"/><circle cx="40" cy="20" r="6" fill="#ffbd2e"/><circle cx="60" cy="20" r="6" fill="#18c132"/></svg><svg height="521.04" viewBox="0 0 80 52.104" width="800" x="15" xmlns="http://www.w3.org/2000/svg" xmlns:xlink="http://www.w3.org/1999/xlink" y="50"><style>@keyframes n{0%{transform:translateX(0)}.1%{transform:translateX(-160px)}15.7%{transform:translateX(-240px)}21.7%{transform:translateX(-320px)}31.3%{transform:translateX(-400px)}42.3%{transform:translateX(-560px)}57.9%{transform:translateX(-640px)}63.9%{transform:translateX(-720px)}73.5%{transform:translateX(-800px)}84.4%{transform:translateX(-960px)}to{transform:translateX(-1040px)}}.a{fill:#282d35}.g{fill:#b9c0cb}.g,.h,.i,.j,.k{white-space:pre}.h{fill:#b9c0cb;font-weight:700}.i,.j,.k{fill:#66c2cd}.j,.k{fill:#e88388}.k{fill:#a8cc8c}</style><g font-family="Monaco,Consolas,Menlo,'Bitstream Vera Sans Mono','Powerline Symbols',monospace" font-size="1.67"><defs><symbol id="1"><text y="1.67" style="white-space:pre" fill="#66c2cd" font-weight="700">cc-safe-setup</text><text x="14.028" y="1.67" class="g">—</text><text x="16.032" y="1.67" class="g">hooks</text><text x="22.044" y="1.67" class="g">that</text><text x="27.054" y="1.67" class="g">stop</text><text x="32.064" y="1.67" class="g">Claude</text><text x="39.078" y="1.67" class="g">Code</text><text x="44.088" y="1.67" class="g">before</text><text x="51.102" y="1.67" class="g">the</text><text x="55.11" y="1.67" class="g">damage</text></symbol><symbol id="2"><text y="1.67" class="g">every</text><text x="6.012" y="1.67" class="g">block</text><text x="12.024" y="1.67" class="g">below</text><text x="18.036" y="1.67" class="g">is</text><text x="21.042" y="1.67" class="g">the</text><text x="25.05" y="1.67" class="g">real</text><text x="30.06" y="1.67" class="g">example</text><text x="38.076" y="1.67" class="g">hook,</text><text x="44.088" y="1.67" class="g">with</text><text x="49.098" y="1.67" class="g">its</text><text x="53.106" y="1.67" class="g">real</text><text x="58.116" y="1.67" class="g">exit</text><text x="63.126" y="1.67" class="g">code</text></symbol><symbol id="3"><text y="1.67" class="h">1)</text><text x="3.006" y="1.67" class="h">The</text><text x="7.014" y="1.67" class="h">AI</text><text x="10.02" y="1.67" class="h">reaches</text><text x="18.036" y="1.67" class="h">for</text><text x="22.044" y="1.67" class="h">a</text><text x="24.048" y="1.67" class="h">recursive</text><text x="34.068" y="1.67" class="h">delete</text><text x="41.082" y="1.67" class="h">over</text><text x="46.092" y="1.67" class="h">your</text><text x="51.102" y="1.67" class="h">source</text><text x="58.116" y="1.67" class="h">tree</text></symbol><symbol id="4"><text x="2.004" y="1.67" class="g">$</text><text x="4.008" y="1.67" class="i">claude</text><text x="11.022" y="1.67" class="g">wants</text><text x="17.034" y="1.67" class="g">to</text><text x="20.04" y="1.67" class="g">run:</text><text x="26.052" y="1.67" class="j">rm</text><text x="29.058" y="1.67" class="j">-rf</text><text x="33.066" y="1.67" class="j">/tmp/demo-proj-D5Do/src</text></symbol><symbol id="5"><text x="2.004" y="1.67" class="g">↳</text><text x="4.008" y="1.67" class="g">PreToolUse</text><text x="15.03" y="1.67" class="g">hook:</text><text x="21.042" y="1.67" class="g">bulk-file-delete-guard.sh</text></symbol><symbol id="6"><text x="4.008" y="1.67" class="j">BLOCKED:</text><text x="13.026" y="1.67" class="j">Recursive</text><text x="23.046" y="1.67" class="j">delete</text><text x="30.06" y="1.67" class="j">would</text><text x="36.072" y="1.67" class="j">affect</text><text x="43.086" y="1.67" class="j">11+</text><text x="47.094" y="1.67" class="j">files</text><text x="53.106" y="1.67" class="j">(threshold:</text><text x="65.13" y="1.67" class="j">10)</text></symbol><symbol id="7"><text x="4.008" y="1.67" class="j">Command:</text><text x="13.026" y="1.67" class="j">rm</text><text x="16.032" y="1.67" class="j">-rf</text><text x="20.04" y="1.67" class="j">/tmp/demo-proj-D5Do/src</text></symbol><symbol id="8"><text x="4.008" y="1.67" class="j">Target:</text><text x="12.024" y="1.67" class="j">/tmp/demo-proj-D5Do/src</text></symbol><symbol id="9"><text x="4.008" y="1.67" class="j">Delete</text><text x="11.022" y="1.67" class="j">specific</text><text x="20.04" y="1.67" class="j">files</text><text x="26.052" y="1.67" class="j">instead</text><text x="34.068" y="1.67" class="j">of</text><text x="37.074" y="1.67" class="j">using</text><text x="43.086" y="1.67" class="j">recursive</text><text x="53.106" y="1.67" class="j">patterns.</text></symbol><symbol id="10"><text x="2.004" y="1.67" class="k">✓</text><text x="4.008" y="1.67" class="k">blocked</text><text x="12.024" y="1.67" class="k">—</text><text x="14.028" y="1.67" class="k">exit</text><text x="19.038" y="1.67" class="k">2,</text><text x="22.044" y="1.67" class="k">the</text><text x="26.052" y="1.67" class="k">action</text><text x="33.066" y="1.67" class="k">never</text><text x="39.078" y="1.67" class="k">runs.</text></symbol><symbol id="11"><text y="1.67" class="h">2)</text><text x="3.006" y="1.67" class="h">The</text><text x="7.014" y="1.67" class="h">AI</text><text x="10.02" y="1.67" class="h">tries</text><text x="16.032" y="1.67" class="h">to</text><text x="19.038" y="1.67" class="h">read</text><text x="24.048" y="1.67" class="h">a</text><text x="26.052" y="1.67" class="h">credential</text><text x="37.074" y="1.67" class="h">file</text><text x="42.084" y="1.67" class="h">&quot;to</text><text x="46.092" y="1.67" class="h">debug</text><text x="52.104" y="1.67" class="h">the</text><text x="56.112" y="1.67" class="h">auth&quot;</text></symbol><symbol id="12"><text x="2.004" y="1.67" class="g">$</text><text x="4.008" y="1.67" class="i">claude</text><text x="11.022" y="1.67" class="g">wants</text><text x="17.034" y="1.67" class="g">to</text><text x="20.04" y="1.67" class="g">run:</text><text x="26.052" y="1.67" class="j">cat</text><text x="30.06" y="1.67" class="j">~/.netrc</text></symbol><symbol id="13"><text x="2.004" y="1.67" class="g">↳</text><text x="4.008" y="1.67" class="g">PreToolUse</text><text x="15.03" y="1.67" class="g">hook:</text><text x="21.042" y="1.67" class="g">credential-file-cat-guard.sh</text></symbol><symbol id="14"><text x="4.008" y="1.67" class="j">BLOCKED:</text><text x="13.026" y="1.67" class="j">Reading</text><text x="21.042" y="1.67" class="j">credential</text><text x="32.064" y="1.67" class="j">file:</text><text x="38.076" y="1.67" class="j">~/.netrc</text></symbol><symbol id="15"><text x="6.012" y="1.67" class="j">These</text><text x="12.024" y="1.67" class="j">files</text><text x="18.036" y="1.67" class="j">contain</text><text x="26.052" y="1.67" class="j">authentication</text><text x="41.082" y="1.67" class="j">tokens.</text><text x="49.098" y="1.67" class="j">Use</text><text x="53.106" y="1.67" class="j">environment</text><text x="65.13" y="1.67" class="j">variables</text><text x="75.15" y="1.67" class="j">inste</text></symbol><symbol id="16"><text y="1.67" class="j">ad.</text></symbol><symbol id="a"><path fill="transparent" d="M0 0h80v25H0z"/></symbol><symbol id="b"><path fill="#6f7683" d="M0 0h1.102v2.171H0z"/></symbol></defs><path class="a" d="M0 0h80v52.104H0z"/><g style="animation-duration:8.340589s;animation-iteration-count:infinite;animation-name:n;animation-timing-function:steps(1,end)"><svg width="1120"><svg><use xlink:href="#a"/><use xlink:href="#b" x="-.004"/></svg><svg x="80"><use xlink:href="#a"/><use xlink:href="#b" x="-.004"/></svg><svg x="160"><use xlink:href="#a"/><use xlink:href="#b" x="-.004" y="6.488"/><use xlink:href="#1"/><use xlink:href="#2" y="2.171"/></svg><svg x="240"><use xlink:href="#a"/><use xlink:href="#b" x="-.004" y="8.659"/><use xlink:href="#1"/><use xlink:href="#2" y="2.171"/><use xlink:href="#3" y="6.513"/></svg><svg x="320"><use xlink:href="#a"/><use xlink:href="#b" x="-.004" y="10.83"/><use xlink:href="#1"/><use xlink:href="#2" y="2.171"/><use xlink:href="#3" y="6.513"/><use xlink:href="#4" y="8.684"/></svg><svg x="400"><use xlink:href="#a"/><use xlink:href="#b" x="-.004" y="13.001"/><use xlink:href="#1"/><use xlink:href="#2" y="2.171"/><use xlink:href="#3" y="6.513"/><use xlink:href="#4" y="8.684"/><use xlink:href="#5" y="10.855"/></svg><svg x="480"><use xlink:href="#a"/><use xlink:href="#b" x="-.004" y="23.856"/><use xlink:href="#1"/><use xlink:href="#2" y="2.171"/><use xlink:href="#3" y="6.513"/><use xlink:href="#4" y="8.684"/><use xlink:href="#5" y="10.855"/><use xlink:href="#6" y="13.026"/><use xlink:href="#7" y="15.197"/><use xlink:href="#8" y="17.368"/><use xlink:href="#9" y="21.71"/></svg><svg x="560"><use xlink:href="#a"/><use xlink:href="#b" x="-.004" y="28.198"/><use xlink:href="#1"/><use xlink:href="#2" y="2.171"/><use xlink:href="#3" y="6.513"/><use xlink:href="#4" y="8.684"/><use xlink:href="#5" y="10.855"/><use xlink:href="#6" y="13.026"/><use xlink:href="#7" y="15.197"/><use xlink:href="#8" y="17.368"/><use xlink:href="#9" y="21.71"/><use xlink:href="#10" y="23.881"/></svg><svg x="640"><use xlink:href="#a"/><use xlink:href="#b" x="-.004" y="30.369"/><use xlink:href="#1"/><use xlink:href="#2" y="2.171"/><use xlink:href="#3" y="6.513"/><use xlink:href="#4" y="8.684"/><use xlink:href="#5" y="10.855"/><use xlink:href="#6" y="13.026"/><use xlink:href="#7" y="15.197"/><use xlink:href="#8" y="17.368"/><use xlink:href="#9" y="21.71"/><use xlink:href="#10" y="23.881"/><use xlink:href="#11" y="28.223"/></svg><svg x="720"><use xlink:href="#a"/><use xlink:href="#b" x="-.004" y="32.54"/><use xlink:href="#1"/><use xlink:href="#2" y="2.171"/><use xlink:href="#3" y="6.513"/><use xlink:href="#4" y="8.684"/><use xlink:href="#5" y="10.855"/><use xlink:href="#6" y="13.026"/><use xlink:href="#7" y="15.197"/><use xlink:href="#8" y="17.368"/><use xlink:href="#9" y="21.71"/><use xlink:href="#10" y="23.881"/><use xlink:href="#11" y="28.223"/><use xlink:href="#12" y="30.394"/></svg><svg x="800"><use xlink:href="#a"/><use xlink:href="#b" x="-.004" y="34.711"/><use xlink:href="#1"/><use xlink:href="#2" y="2.171"/><use xlink:href="#3" y="6.513"/><use xlink:href="#4" y="8.684"/><use xlink:href="#5" y="10.855"/><use xlink:href="#6" y="13.026"/><use xlink:href="#7" y="15.197"/><use xlink:href="#8" y="17.368"/><use xlink:href="#9" y="21.71"/><use xlink:href="#10" y="23.881"/><use xlink:href="#11" y="28.223"/><use xlink:href="#12" y="30.394"/><use xlink:href="#13" y="32.565"/></svg><svg x="880"><use xlink:href="#a"/><use xlink:href="#b" x="-.004" y="41.224"/><use xlink:href="#1"/><use xlink:href="#2" y="2.171"/><use xlink:href="#3" y="6.513"/><use xlink:href="#4" y="8.684"/><use xlink:href="#5" y="10.855"/><use xlink:href="#6" y="13.026"/><use xlink:href="#7" y="15.197"/><use xlink:href="#8" y="17.368"/><use xlink:href="#9" y="21.71"/><use xlink:href="#10" y="23.881"/><use xlink:href="#11" y="28.223"/><use xlink:href="#12" y="30.394"/><use xlink:href="#13" y="32.565"/><use xlink:href="#14" y="34.736"/><use xlink:href="#15" y="36.907"/><use xlink:href="#16" y="39.078"/></svg><svg x="960"><use xlink:href="#a"/><use xlink:href="#b" x="-.004" y="45.566"/><use xlink:href="#1"/><use xlink:href="#2" y="2.171"/><use xlink:href="#3" y="6.513"/><use xlink:href="#4" y="8.684"/><use xlink:href="#5" y="10.855"/><use xlink:href="#6" y="13.026"/><use xlink:href="#7" y="15.197"/><use xlink:href="#8" y="17.368"/><use xlink:href="#9" y="21.71"/><use xlink:href="#10" y="23.881"/><use xlink:href="#11" y="28.223"/><use xlink:href="#12" y="30.394"/><use xlink:href="#13" y="32.565"/><use xlink:href="#14" y="34.736"/><use xlink:href="#15" y="36.907"/><use xlink:href="#16" y="39.078"/><use xlink:href="#10" y="41.249"/></svg><svg x="1040"><use xlink:href="#a"/><use xlink:href="#b" x="-.004" y="49.908"/><use xlink:href="#1"/><use xlink:href="#2" y="2.171"/><use xlink:href="#3" y="6.513"/><use xlink:href="#4" y="8.684"/><use xlink:href="#5" y="10.855"/><use xlink:href="#6" y="13.026"/><use xlink:href="#7" y="15.197"/><use xlink:href="#8" y="17.368"/><use xlink:href="#9" y="21.71"/><use xlink:href="#10" y="23.881"/><use xlink:href="#11" y="28.223"/><use xlink:href="#12" y="30.394"/><use xlink:href="#13" y="32.565"/><use xlink:href="#14" y="34.736"/><use xlink:href="#15" y="36.907"/><use xlink:href="#16" y="39.078"/><use xlink:href="#10" y="41.249"/><text y="47.261" class="h">The</text><text x="4.008" y="47.261" class="h">hooks</text><text x="10.02" y="47.261" class="h">run</text><text x="14.028" y="47.261" class="h">on</text><text x="17.034" y="47.261" class="h">every</text><text x="23.046" y="47.261" class="h">tool</text><text x="28.056" y="47.261" class="h">call</text><text x="33.066" y="47.261" class="h">—</text><text x="35.07" y="47.261" class="h">even</text><text x="40.08" y="47.261" class="h">while</text><text x="46.092" y="47.261" class="h">you</text><text x="50.1" y="47.261" class="h">are</text><text x="54.108" y="47.261" class="h">away</text><text x="59.118" y="47.261" class="h">from</text><text x="64.128" y="47.261" class="h">the</text><text x="68.136" y="47.261" class="h">keyboard.</text><text y="49.432" class="g">~800</text><text x="5.01" y="49.432" class="g">example</text><text x="13.026" y="49.432" class="g">hooks,</text><text x="20.04" y="49.432" class="g">MIT-licensed:</text><text x="34.068" y="49.432" class="i">github.com/yurukusa/cc-safe-setup</text></svg></svg></g></g></svg></svg>